<svg width="426" height="86" viewBox="0 0 426 86" fill="none" xmlns="http://www.w3.org/2000/svg">
<g filter="url(#filter0_d_2100_13045)">
<path d="M388.544 71.0537C389.26 71.0538 389.92 71.2413 390.525 71.6162C391.13 71.987 391.613 72.5479 391.976 73.2979C392.338 74.0435 392.52 74.9786 392.52 76.1035C392.52 77.1986 392.343 78.1237 391.989 78.8779C391.64 79.6279 391.162 80.1972 390.557 80.585C389.956 80.9683 389.283 81.1602 388.537 81.1602C388.009 81.1602 387.559 81.0722 387.188 80.8975C386.822 80.7227 386.521 80.5035 386.287 80.2393C386.053 79.9708 385.874 79.7004 385.75 79.4277H385.667V84.6816H382.944V71.1816H385.629V72.8311H385.75C385.869 72.5669 386.042 72.2981 386.268 72.0254C386.498 71.7484 386.797 71.5182 387.163 71.335C387.534 71.1476 387.994 71.0537 388.544 71.0537ZM288.081 71.0537C288.729 71.0537 289.332 71.1584 289.891 71.3672C290.453 71.5717 290.943 71.8807 291.36 72.2939C291.782 72.7073 292.11 73.2272 292.345 73.8535C292.579 74.4757 292.696 75.2048 292.696 76.04V76.7881H286.011V76.7939C286.011 77.2797 286.099 77.7 286.278 78.0537C286.461 78.4072 286.72 78.6794 287.052 78.8711C287.384 79.0628 287.779 79.1591 288.234 79.1592C288.537 79.1592 288.814 79.1164 289.065 79.0312C289.317 78.946 289.532 78.8179 289.711 78.6475C289.89 78.4771 290.026 78.2685 290.12 78.0215L292.639 78.1875C292.511 78.7925 292.249 79.3208 291.853 79.7725C291.46 80.2199 290.953 80.5699 290.331 80.8213C289.713 81.0683 289 81.1914 288.19 81.1914C287.18 81.1914 286.311 80.9872 285.582 80.5781C284.858 80.1648 284.299 79.5813 283.907 78.8271C283.515 78.0686 283.319 77.1712 283.319 76.1357C283.319 75.1258 283.515 74.2393 283.907 73.4766C284.299 72.7139 284.851 72.1195 285.562 71.6934C286.278 71.2673 287.118 71.0537 288.081 71.0537ZM318.76 71.0537C319.616 71.0537 320.366 71.2095 321.01 71.5205C321.653 71.8316 322.163 72.2686 322.538 72.8311C322.913 73.3935 323.119 74.0541 323.157 74.8125H320.588C320.515 74.3225 320.324 73.9282 320.013 73.6299C319.706 73.3274 319.303 73.1758 318.805 73.1758C318.383 73.1758 318.015 73.2914 317.699 73.5215C317.388 73.7473 317.144 74.0771 316.97 74.5117C316.795 74.9464 316.708 75.473 316.708 76.0908C316.708 76.7171 316.794 77.2496 316.964 77.6885C317.139 78.1274 317.384 78.4623 317.699 78.6924C318.015 78.9224 318.383 79.0381 318.805 79.0381C319.116 79.0381 319.395 78.9734 319.642 78.8457C319.893 78.7179 320.1 78.5328 320.262 78.29C320.428 78.0429 320.537 77.7465 320.588 77.4014H323.157C323.115 78.1513 322.91 78.8118 322.544 79.3828C322.182 79.9495 321.681 80.3923 321.042 80.7119C320.403 81.0315 319.646 81.1914 318.772 81.1914C317.767 81.1914 316.902 80.9788 316.178 80.5527C315.458 80.1223 314.903 79.5255 314.516 78.7627C314.132 77.9999 313.94 77.1218 313.94 76.1289C313.94 75.1235 314.135 74.2418 314.522 73.4834C314.915 72.7206 315.47 72.1254 316.19 71.6992C316.911 71.2689 317.767 71.0537 318.76 71.0537ZM366.045 71.0537C366.901 71.0537 367.651 71.2095 368.295 71.5205C368.938 71.8316 369.448 72.2686 369.823 72.8311C370.198 73.3935 370.404 74.0541 370.442 74.8125H367.873C367.801 74.3225 367.609 73.9282 367.298 73.6299C366.991 73.3274 366.588 73.1758 366.09 73.1758C365.668 73.1758 365.3 73.2914 364.984 73.5215C364.673 73.7473 364.43 74.0771 364.255 74.5117C364.08 74.9464 363.993 75.473 363.993 76.0908C363.993 76.7171 364.079 77.2496 364.249 77.6885C364.424 78.1274 364.669 78.4623 364.984 78.6924C365.3 78.9224 365.668 79.0381 366.09 79.0381C366.401 79.0381 366.68 78.9734 366.927 78.8457C367.178 78.7179 367.385 78.5328 367.547 78.29C367.713 78.0429 367.822 77.7465 367.873 77.4014H370.442C370.4 78.1513 370.196 78.8118 369.829 79.3828C369.467 79.9495 368.966 80.3923 368.327 80.7119C367.688 81.0315 366.931 81.1914 366.058 81.1914C365.052 81.1914 364.187 80.9788 363.463 80.5527C362.743 80.1223 362.189 79.5255 361.801 78.7627C361.417 77.9999 361.226 77.1218 361.226 76.1289C361.226 75.1235 361.42 74.2418 361.808 73.4834C362.2 72.7206 362.755 72.1254 363.476 71.6992C364.196 71.2689 365.052 71.0537 366.045 71.0537ZM376.552 71.0537C377.199 71.0537 377.803 71.1584 378.361 71.3672C378.924 71.5717 379.414 71.8807 379.831 72.2939C380.253 72.7073 380.581 73.2272 380.815 73.8535C381.05 74.4757 381.167 75.2048 381.167 76.04V76.7881H374.481V76.7939C374.481 77.2797 374.57 77.7 374.749 78.0537C374.932 78.4072 375.19 78.6794 375.522 78.8711C375.855 79.0628 376.249 79.1591 376.705 79.1592C377.008 79.1592 377.285 79.1164 377.536 79.0312C377.788 78.946 378.003 78.8179 378.182 78.6475C378.361 78.4771 378.497 78.2685 378.591 78.0215L381.109 78.1875C380.982 78.7925 380.719 79.3208 380.323 79.7725C379.931 80.2199 379.424 80.5699 378.802 80.8213C378.184 81.0683 377.47 81.1914 376.661 81.1914C375.651 81.1914 374.781 80.9872 374.053 80.5781C373.328 80.1648 372.77 79.5813 372.378 78.8271C371.986 78.0686 371.79 77.1712 371.79 76.1357C371.79 75.1258 371.986 74.2393 372.378 73.4766C372.77 72.7139 373.322 72.1195 374.033 71.6934C374.749 71.2673 375.589 71.0537 376.552 71.0537ZM420.133 71.0537C420.989 71.0537 421.739 71.2095 422.383 71.5205C423.026 71.8316 423.536 72.2686 423.911 72.8311C424.286 73.3935 424.492 74.0541 424.53 74.8125H421.961C421.888 74.3225 421.697 73.9282 421.386 73.6299C421.079 73.3274 420.676 73.1758 420.178 73.1758C419.756 73.1758 419.388 73.2914 419.072 73.5215C418.761 73.7473 418.517 74.0771 418.343 74.5117C418.168 74.9464 418.081 75.473 418.081 76.0908C418.081 76.7171 418.167 77.2496 418.337 77.6885C418.512 78.1274 418.757 78.4623 419.072 78.6924C419.388 78.9224 419.756 79.0381 420.178 79.0381C420.489 79.0381 420.768 78.9734 421.015 78.8457C421.266 78.7179 421.473 78.5328 421.635 78.29C421.801 78.0429 421.91 77.7465 421.961 77.4014H424.53C424.488 78.1513 424.283 78.8118 423.917 79.3828C423.555 79.9495 423.054 80.3923 422.415 80.7119C421.776 81.0315 421.019 81.1914 420.146 81.1914C419.14 81.1914 418.275 80.9788 417.551 80.5527C416.831 80.1223 416.276 79.5255 415.889 78.7627C415.505 77.9999 415.313 77.1218 415.313 76.1289C415.314 75.1235 415.508 74.2418 415.896 73.4834C416.288 72.7206 416.843 72.1254 417.563 71.6992C418.284 71.2689 419.14 71.0537 420.133 71.0537ZM251.905 73.1377H252.462L256.809 67.9092H260.254L255.146 73.9814L260.49 81H257.058L252.852 75.4199H251.905V81H249.138V67.9092H251.905V73.1377ZM270.601 81H268.006V73.3232H265.583L265.43 76.3213C265.391 77.1436 265.291 77.8511 265.129 78.4434C264.971 79.0355 264.752 79.5212 264.471 79.9004C264.189 80.2754 263.85 80.5525 263.454 80.7314C263.058 80.9104 262.597 81 262.073 81H261.256L261.243 78.8398H261.568C261.798 78.8398 261.997 78.7836 262.163 78.6729C262.333 78.5578 262.474 78.3728 262.585 78.1172C262.696 77.8615 262.783 77.5225 262.847 77.1006C262.911 76.6745 262.953 76.1504 262.975 75.5283L263.135 71.1816H270.601V81ZM275.313 77.4072L278.848 71.1816H281.532V81H278.938V74.7549L275.415 81H272.712V71.1816H275.313V77.4072ZM297.075 75.0039H300.431V71.1816H303.013V81H300.431V77.1455H297.075V81H294.474V71.1816H297.075V75.0039ZM313.037 73.3232H309.873V81H307.278V73.3232H304.14V71.1816H313.037V73.3232ZM327.624 74.9912H328.392L331.063 71.1816H334.259L330.788 76.0527L334.298 81H331.063L328.641 77.5166H327.624V81H324.901V71.1816H327.624V74.9912ZM338.05 77.4072L341.584 71.1816H344.269V81H341.674V74.7549L338.151 81H335.448V71.1816H338.05V77.4072ZM349.054 77.4072L352.588 71.1816H355.272V81H352.678V74.7549L349.155 81H346.452V71.1816H349.054V77.4072ZM398.521 71.1816C399.732 71.1816 400.688 71.4118 401.392 71.8721C402.095 72.3323 402.446 72.987 402.446 73.835C402.446 74.3674 402.248 74.8105 401.852 75.1641C401.455 75.5177 400.905 75.7563 400.202 75.8799C400.79 75.9225 401.292 76.0564 401.705 76.2822C402.123 76.5038 402.44 76.7919 402.657 77.1455C402.879 77.4991 402.989 77.8911 402.989 78.3213C402.989 78.8795 402.84 79.3592 402.542 79.7598C402.248 80.1603 401.815 80.4676 401.244 80.6807C400.677 80.8936 399.985 81 399.167 81H394.335V71.1816H398.521ZM407.308 77.4072L410.842 71.1816H413.526V81H410.932V74.7549L407.409 81H404.706V71.1816H407.308V77.4072ZM387.674 73.2207C387.231 73.2208 386.856 73.338 386.549 73.5723C386.246 73.8066 386.014 74.1391 385.853 74.5693C385.691 74.9997 385.609 75.507 385.609 76.0908C385.609 76.6745 385.691 77.1836 385.853 77.6182C386.014 78.0528 386.249 78.3919 386.556 78.6348C386.862 78.8733 387.235 78.9931 387.674 78.9932C388.117 78.9932 388.492 78.8716 388.799 78.6289C389.106 78.3817 389.338 78.0401 389.496 77.6055C389.658 77.1666 389.739 76.6617 389.739 76.0908C389.739 75.5241 389.66 75.0251 389.502 74.5947C389.344 74.1646 389.112 73.8278 388.806 73.585C388.499 73.3421 388.121 73.2207 387.674 73.2207ZM396.872 78.9609H399.167C399.546 78.9609 399.843 78.8714 400.056 78.6924C400.273 78.5092 400.382 78.2596 400.382 77.9443C400.382 77.5951 400.273 77.3203 400.056 77.1201C399.843 76.9198 399.546 76.8193 399.167 76.8193H396.872V78.9609ZM396.872 75.2217H398.579C398.852 75.2217 399.084 75.1831 399.275 75.1064C399.471 75.0255 399.621 74.9109 399.724 74.7617C399.83 74.6126 399.883 74.435 399.883 74.2305C399.883 73.9281 399.761 73.6919 399.519 73.5215C399.276 73.351 398.943 73.2656 398.521 73.2656H396.872V75.2217ZM376.597 73.0869C376.183 73.0869 375.817 73.1823 375.497 73.374C375.182 73.5615 374.935 73.8153 374.756 74.1348C374.591 74.4258 374.501 74.7479 374.484 75.1006H378.604C378.604 74.7087 378.519 74.361 378.349 74.0586C378.178 73.756 377.941 73.5191 377.639 73.3486C377.34 73.1739 376.993 73.0869 376.597 73.0869ZM288.126 73.0869C287.713 73.0869 287.346 73.1823 287.026 73.374C286.711 73.5615 286.464 73.8153 286.285 74.1348C286.12 74.4258 286.03 74.7479 286.014 75.1006H290.133C290.133 74.7087 290.048 74.361 289.878 74.0586C289.707 73.756 289.471 73.5191 289.168 73.3486C288.87 73.1739 288.522 73.0869 288.126 73.0869ZM349.584 67.7559C349.58 68.0497 349.674 68.3136 349.865 68.5479C350.061 68.7822 350.392 68.8994 350.856 68.8994C351.308 68.8993 351.631 68.7846 351.827 68.5547C352.023 68.3246 352.122 68.0583 352.122 67.7559H354.021C354.016 68.5313 353.728 69.1559 353.157 69.6289C352.591 70.1018 351.823 70.3378 350.856 70.3379C349.885 70.3379 349.116 70.1017 348.549 69.6289C347.982 69.1559 347.698 68.5313 347.698 67.7559H349.584ZM59.1777 1.31934C60.2529 1.31934 61.1299 2.19113 61.1299 3.26074V41.9883C61.1301 43.0577 62.0061 43.9297 63.0811 43.9297H66.7979C67.8729 43.9297 68.7498 44.802 68.75 45.8711V68.3613C68.75 69.4311 67.873 70.3037 66.7979 70.3037H52.8096C51.7347 70.3036 50.8584 69.431 50.8584 68.3613V60.9541C50.8584 59.8846 49.9822 59.0129 48.9072 59.0127H19.8428C18.7682 59.0127 17.8916 59.8845 17.8916 60.9541V68.3613C17.8916 69.4311 17.0146 70.3037 15.9395 70.3037H1.95117C0.876238 70.3035 0 69.431 0 68.3613V45.8672C0 44.8184 0.838571 43.9577 1.89258 43.9258C5.13602 43.8288 7.43182 41.7141 8.7793 37.583C10.1597 33.3523 11.0437 27.1159 11.4307 18.874L12.0225 3.18848C12.0619 2.14524 12.9235 1.31953 13.9727 1.31934H59.1777ZM333.645 0C339.553 5.60499e-05 344.73 1.0852 349.175 3.25586C353.62 5.42603 357.043 8.46227 359.445 12.3633C361.847 16.2646 363.049 20.7423 363.049 25.7969C363.049 32.5004 361.489 38.4766 358.369 43.7236C355.249 48.9711 350.914 53.0506 345.364 55.9629C339.815 58.8747 333.533 60.3311 326.521 60.3311C320.612 60.331 315.434 59.2459 310.989 57.0752C306.544 54.9048 303.121 51.8686 300.719 47.9678C298.317 44.0665 297.115 39.5888 297.115 34.5342C297.115 27.8307 298.675 21.8545 301.795 16.6074C304.915 11.36 309.25 7.28067 314.8 4.36816C320.35 1.45645 326.631 0 333.645 0ZM104.698 1.31934C111.877 1.31934 117.44 2.6382 121.389 5.27539C125.337 7.91294 127.312 11.6214 127.312 16.4014C127.312 19.1488 126.662 21.5665 125.364 23.6543C124.604 24.8773 123.66 25.9688 122.531 26.9277C122.03 27.3532 121.791 27.9421 121.855 28.5947C121.92 29.2466 122.27 29.7789 122.845 30.0986C124.678 31.1194 126.168 32.3924 127.312 33.916C129.023 36.196 129.879 38.9846 129.879 42.2812C129.879 47.4463 127.821 51.5257 123.708 54.5205C119.594 57.5147 113.782 59.0127 106.272 59.0127H77.2451C76.1702 59.0127 75.294 58.1395 75.2939 57.0703V3.26074C75.2939 2.19113 76.1702 1.31934 77.2451 1.31934H104.698ZM154.103 1.31934C155.178 1.31955 156.054 2.19126 156.054 3.26074V24.8682C156.054 25.7385 156.605 26.4767 157.443 26.7275C158.281 26.9787 159.15 26.6665 159.633 25.9404L175.438 2.18848C175.81 1.62867 176.39 1.31942 177.064 1.31934H192.453C193.528 1.31936 194.404 2.19115 194.404 3.26074V57.0703C194.404 58.1395 193.528 59.0127 192.453 59.0127H177.14C176.065 59.0127 175.188 58.1395 175.188 57.0703V35.5527C175.188 34.682 174.637 33.9434 173.799 33.6924C172.961 33.4415 172.091 33.7552 171.608 34.4814L155.887 58.1416C155.514 58.7018 154.934 59.0127 154.259 59.0127H138.789C137.714 59.0127 136.837 58.1395 136.837 57.0703V3.26074C136.837 2.19113 137.714 1.31934 138.789 1.31934H154.103ZM220.013 1.31934C220.782 1.31939 221.441 1.73153 221.773 2.42188L231.064 21.7266C231.397 22.4171 232.055 22.8301 232.825 22.8301H235.359C236.434 22.8301 237.311 21.9581 237.312 20.8887V3.26074C237.312 2.1912 238.188 1.31945 239.263 1.31934H254.41C255.485 1.31934 256.362 2.19113 256.362 3.26074V20.8887C256.363 21.958 257.239 22.8299 258.313 22.8301H260.525C261.291 22.8301 261.946 22.4223 262.28 21.7383L271.732 2.41113C272.067 1.7269 272.722 1.31934 273.487 1.31934H289.391C290.095 1.31948 290.701 1.66038 291.063 2.26172C291.426 2.86305 291.444 3.55574 291.112 4.1748L278.459 27.79C278.15 28.3667 278.144 29.0002 278.441 29.583L292.029 56.1904C292.346 56.8095 292.318 57.4937 291.953 58.0859C291.588 58.6778 290.988 59.0126 290.29 59.0127H272.275C271.495 59.0126 270.826 58.5859 270.501 57.8799L261.937 39.292C261.611 38.5863 260.943 38.1602 260.162 38.1602H258.313C257.239 38.1603 256.362 39.0322 256.362 40.1016V57.0703C256.362 58.1395 255.485 59.0127 254.41 59.0127H239.263C238.188 59.0126 237.312 58.1395 237.312 57.0703V40.1016C237.311 39.0321 236.434 38.1602 235.359 38.1602H233.346C232.565 38.1602 231.897 38.5863 231.571 39.292L223.007 57.8799C222.681 58.586 222.013 59.0126 221.232 59.0127H203.227C202.527 59.0127 201.927 58.6774 201.562 58.084C201.197 57.491 201.17 56.8061 201.488 56.1865L215.145 29.5869C215.444 29.0024 215.439 28.3649 215.127 27.7861L202.406 4.17871C202.073 3.55972 202.09 2.8664 202.452 2.26367C202.815 1.66108 203.421 1.31934 204.127 1.31934H220.013ZM385.864 1.31934C386.939 1.3194 387.815 2.19117 387.815 3.26074V20.8887C387.816 21.9581 388.693 22.8301 389.768 22.8301H392.646C393.367 22.83 393.985 22.4727 394.342 21.8506L405.56 2.29785C405.917 1.67625 406.535 1.31934 407.255 1.31934H423.016C423.741 1.31934 424.364 1.68196 424.719 2.31152C425.073 2.94103 425.059 3.65887 424.681 4.27441L409.873 28.3584C409.491 28.9805 409.481 29.7076 409.846 30.3398L424.733 56.1016C425.091 56.7192 425.089 57.4261 424.73 58.043C424.372 58.6597 423.757 59.0127 423.041 59.0127H405.557C404.815 59.0127 404.179 58.6307 403.832 57.9785L393.832 39.1924C393.485 38.5409 392.849 38.1602 392.107 38.1602H389.768C388.693 38.1602 387.816 39.0321 387.815 40.1016V57.0703C387.815 58.1395 386.939 59.0126 385.864 59.0127H370.22C369.145 59.0127 368.268 58.1395 368.268 57.0703V3.26074C368.268 2.19113 369.145 1.31934 370.22 1.31934H385.864ZM96.4619 36.3467C95.387 36.3467 94.5098 37.2193 94.5098 38.2891V43.4707C94.5098 44.5403 95.387 45.4131 96.4619 45.4131H105.361C108.564 45.413 110.165 43.8745 110.165 40.7979C110.165 37.8309 108.564 36.3468 105.361 36.3467H96.4619ZM331.987 15.7422C328.895 15.7422 326.203 16.5393 323.911 18.1328C321.62 19.7259 319.866 21.8685 318.651 24.5605C317.437 27.2529 316.829 30.1928 316.829 33.3799C316.829 36.7866 317.837 39.5059 319.853 41.5391C321.868 43.5721 324.643 44.5888 328.177 44.5889C331.269 44.5889 333.961 43.7917 336.253 42.1982C338.544 40.6052 340.298 38.4628 341.513 35.7705C342.728 33.0782 343.335 30.1382 343.335 26.9512C343.335 23.5447 342.327 20.8251 340.312 18.792C338.296 16.7589 335.522 15.7422 331.987 15.7422ZM30.4512 16.4014C29.4042 16.4015 28.5436 17.2243 28.502 18.2656L28.4111 20.5225C28.1905 26.0719 27.7479 30.7836 27.085 34.6572C26.6502 37.1992 26.0614 39.4048 25.3174 41.2725C25.0716 41.8887 25.1424 42.5304 25.5166 43.0791C25.8912 43.6278 26.4655 43.9297 27.1318 43.9297H39.9609C41.0358 43.9296 41.9119 43.0576 41.9121 41.9883V18.3428C41.9119 17.2733 41.0358 16.4015 39.9609 16.4014H30.4512ZM96.4619 14.918C95.3871 14.918 94.51 15.79 94.5098 16.8594V21.5479C94.5099 22.6173 95.387 23.4893 96.4619 23.4893H102.793C105.996 23.4893 107.598 22.0882 107.598 19.2861C107.598 16.3739 105.996 14.918 102.793 14.918H96.4619Z" fill="#051B54"/>
</g>
<defs>
<filter id="filter0_d_2100_13045" x="0" y="0" width="426" height="85.6816" filterUnits="userSpaceOnUse" color-interpolation-filters="sRGB">
<feFlood flood-opacity="0" result="BackgroundImageFix"/>
<feColorMatrix in="SourceAlpha" type="matrix" values="0 0 0 0 0 0 0 0 0 0 0 0 0 0 0 0 0 0 127 0" result="hardAlpha"/>
<feOffset dx="1" dy="1"/>
<feComposite in2="hardAlpha" operator="out"/>
<feColorMatrix type="matrix" values="0 0 0 0 0.819608 0 0 0 0 0.854902 0 0 0 0 0.952941 0 0 0 1 0"/>
<feBlend mode="normal" in2="BackgroundImageFix" result="effect1_dropShadow_2100_13045"/>
<feBlend mode="normal" in="SourceGraphic" in2="effect1_dropShadow_2100_13045" result="shape"/>
</filter>
</defs>
</svg>
