<svg width="54" height="66" viewBox="0 0 54 66" fill="none" xmlns="http://www.w3.org/2000/svg">
<path d="M39 45C40.6569 45 42 46.3431 42 48C42 49.6569 40.6569 51 39 51H15C13.3431 51 12 49.6569 12 48C12 46.3431 13.3431 45 15 45H39ZM39 33C40.6569 33 42 34.3431 42 36C42 37.6569 40.6569 39 39 39H15C13.3431 39 12 37.6569 12 36C12 34.3431 13.3431 33 15 33H39ZM21 21C22.6569 21 24 22.3431 24 24C24 25.6569 22.6569 27 21 27H15C13.3431 27 12 25.6569 12 24C12 22.3431 13.3431 21 15 21H21ZM36 18H43.7578L36 10.2422V18ZM54 57C54 59.387 53.0511 61.6755 51.3633 63.3633C49.6755 65.0511 47.387 66 45 66H9C6.61305 66 4.32455 65.0511 2.63672 63.3633C0.948892 61.6754 0 59.387 0 57V9C0 6.61305 0.948891 4.32455 2.63672 2.63672C4.32455 0.948891 6.61305 0 9 0H33C33.7957 0 34.5585 0.316297 35.1211 0.878906L53.1211 18.8789C53.6837 19.4415 54 20.2044 54 21V57ZM6 57C6 57.7957 6.3163 58.5585 6.87891 59.1211C7.44152 59.6837 8.20435 60 9 60H45C45.7956 60 46.5585 59.6837 47.1211 59.1211C47.6837 58.5585 48 57.7956 48 57V24H33C31.3431 24 30 22.6569 30 21V6H9C8.20435 6 7.44151 6.3163 6.87891 6.87891C6.3163 7.44151 6 8.20435 6 9V57Z" fill="#093095"/>
</svg>
